# xmcd CD database file
#
# Track frame offsets:
#	150
#	26844
#	47650
#	76669
#	111211
#	133686
#	183261
#	211700
#	235306
#
# Disc length: 3612 seconds
#
# Revision: 0
# Processed by: cddbd v1.5.1PL2 Copyright (c) Steve Scherf et al.
# Submitted via: CDex 1.60beta1-cs1
#
DISCID=6e0e1a09
DTITLE=Kevin Kendle - Spring
DYEAR=1997
DGENRE=New Age
TTITLE0=Melting Snow
TTITLE1=Warming Sun
TTITLE2=The Rise Of Spring
TTITLE3=The Brook
TTITLE4=Ancient Hedgerows
TTITLE5=Scented Air
TTITLE6=Bluebell Wood
TTITLE7=Soft Rain
TTITLE8=The Approach Of Summer
EXTD=YEAR: 1997
EXTT0=
EXTT1=
EXTT2=
EXTT3=
EXTT4=
EXTT5=
EXTT6=
EXTT7=
EXTT8=
PLAYORDER=
